<?xml version="1.0" encoding="UTF-8" standalone="no"?>
<!-- Created with Inkscape (http://www.inkscape.org/) -->
<svg xmlns:rdf="http://www.w3.org/1999/02/22-rdf-syntax-ns#" xmlns="http://www.w3.org/2000/svg" xmlns:cc="http://web.resource.org/cc/" xmlns:dc="http://purl.org/dc/elements/1.1/" xmlns:svg="http://www.w3.org/2000/svg" xmlns:inkscape="http://www.inkscape.org/namespaces/inkscape" xmlns:sodipodi="http://sodipodi.sourceforge.net/DTD/sodipodi-0.dtd" xmlns:ns1="http://sozi.baierouge.fr" xmlns:xlink="http://www.w3.org/1999/xlink" id="Layer_1" xml:space="preserve" version="1.0" viewBox="0 0 149.4702 110.4312" inkscape:version="0.91 r13725">
<filter id="AI_Shadow_1" filterUnits="objectBoundingBox">
	<feGaussianBlur id="feGaussianBlur6" result="blur" stdDeviation="2" in="SourceAlpha"/>
	<feOffset id="feOffset8" result="offsetBlurredAlpha" dy="4" dx="4" in="blur"/>
	<feMerge id="feMerge10">
		<feMergeNode id="feMergeNode12" in="offsetBlurredAlpha"/>
		<feMergeNode id="feMergeNode14" in="SourceGraphic"/>
	</feMerge>
</filter>
<g id="g249" style="filter:url(#AI_Shadow_1)" transform="matrix(.94521 0 0 .93511 2.0474 2.5593)">
	<path id="path251" style="stroke:#ec2627;stroke-width:2.5;fill:#ffffff" d="m146.87 27.052c-0.95-1.64-2.85-3.802-6.52-4.791-0.01-0.003-0.02-0.003-0.03-0.006l-4.9-15.004c-0.17-0.5542-0.41-1.0996-0.72-1.6353-1.2-2.0903-3.25-3.5527-5.78-4.1123-0.76-0.167-1.54-0.2534-2.32-0.2534-1.24 0-2.48 0.2148-3.71 0.6436-1.34 0.4678-2.48 0.98-3.47 1.5542-2.22 1.2808-3.88 2.8179-5.03 4.5605-0.02 0-0.03-0.0044-0.05-0.0044-1.39 0-2.75 0.4907-3.82 1.4058-0.42 0.354-0.88 0.7163-1.35 1.0703-0.45 0.332-0.88 0.612-1.26 0.835-0.68 0.389-1.39 0.761-2.13 1.102-0.79 0.366-1.51 0.681-2.16 0.936-0.77 0.307-1.47 0.77-2.04 1.353-0.69 0.178-1.34 0.481-1.932 0.903-2.344 1.67-4.928 3.323-7.678 4.907-1.576 0.912-2.97 1.685-4.271 2.37-1.241 0.655-2.496 1.261-3.741 1.793-0.468 0.202-0.902 0.464-1.298 0.773-0.452 0.181-0.879 0.418-1.278 0.713-1.935 1.424-4.068 2.811-6.342 4.128-2.558 1.476-5.088 2.779-7.518 3.866-0.794 0.356-1.48 0.883-2.038 1.526-0.707 0.137-1.399 0.393-2.04 0.801-1.1 0.699-2.838 1.781-5.221 3.238-2.412 1.477-4.637 2.83-6.673 4.057-2.032 1.22-4.533 2.691-7.493 4.403-1.112 0.637-2.287 1.268-3.491 1.872-1.258 0.629-2.406 1.183-3.452 1.654-0.036 0.016-0.067 0.043-0.103 0.061-0.321 0.153-0.634 0.328-0.927 0.541l-0.022 0.017c-0.006 0.004-0.012 0.007-0.016 0.011l-1.024 0.752-0.915 0.67c-0.649 0.482-1.263 0.892-1.83 1.218-0.212 0.124-0.54 0.284-0.982 0.491-0.678 0.316-1.21 0.588-1.599 0.801l-2.662 1.25c-1.491 0.699-2.619 1.991-3.111 3.56-0.305 0.963-0.354 1.975-0.158 2.94l-2.565-0.86c-0.611-0.203-1.241-0.304-1.868-0.304-1.284 0-2.555 0.42-3.599 1.226-1.527 1.18-3.253 2.326-5.127 3.407-1.9478 1.124-3.8726 2.084-5.7291 2.855-1.5625 0.65-2.7725 1.942-3.3154 3.546-0.5439 1.604-0.3701 3.366 0.4785 4.835l1.1045 1.912c0.7832 1.349 2.0713 2.337 3.583 2.739 0.4961 0.133 1.0029 0.198 1.5117 0.198 0.4248 0 0.8486-0.046 1.2617-0.139l8.0741 13.98c-0.497 0.546-0.895 1.189-1.162 1.898-0.618 1.645-0.469 3.485 0.41 5.015l1.104 1.91c0.836 1.45 2.251 2.47 3.889 2.82 0.4 0.08 0.802 0.12 1.204 0.12 1.248 0 2.471-0.39 3.494-1.14 1.636-1.21 2.591-1.91 2.88-2.11 0.235-0.16 0.662-0.41 1.294-0.77 0.47-0.28 1.049-0.57 1.753-0.9 0.799-0.39 1.79-0.84 2.961-1.36 1.529-0.67 2.7-1.96 3.225-3.547 0.52-1.587 0.341-3.322-0.491-4.769l-1.08-1.875c-0.256-0.443-0.567-0.851-0.922-1.207l9.72 3.161c0.593 0.193 1.208 0.286 1.82 0.286 1.023 0 2.04-0.265 2.944-0.789l4.24-2.449c0.613-0.353 1.12-0.815 1.55-1.327 0.85-0.144 1.668-0.468 2.391-0.974 1.091-0.761 2.303-1.572 3.617-2.429 1.318-0.856 2.583-1.633 3.767-2.317 1.657-0.957 3.873-2.205 6.653-3.74 2.806-1.552 5.683-3.129 8.63-4.73 3.055-1.657 4.769-2.594 5.135-2.81 2.629-1.532 3.654-4.821 2.361-7.579l-3.514-7.499c-0.697-1.491-1.99-2.62-3.56-3.115-0.578-0.181-1.174-0.272-1.766-0.272-0.443 0-0.877 0.05-1.306 0.148l-0.256-0.445-0.25-0.432-0.28-0.483-0.334-0.575-0.351-0.61-0.447-0.77-0.498-0.863-0.245-0.433c0.141-0.295 0.239-0.614 0.331-0.935l18.045 14.874c1.078 0.889 2.406 1.344 3.74 1.344 1.012 0 2.029-0.262 2.939-0.791l5.51-3.18c2.16-1.246 3.3-3.718 2.84-6.17l-0.1-0.547 0.47 0.395c1.09 0.91 2.43 1.377 3.79 1.377 1 0 2.02-0.259 2.94-0.787l5.23-3.023c2.17-1.254 3.31-3.745 2.84-6.209l-4.04-20.989 4.57 5.18c-0.81 2.766-0.49 5.601 0.93 8.045 1.52 2.645 4.08 4.405 7.18 4.95 0.65 0.116 1.32 0.176 1.97 0.176 2.19 0 4.37-0.629 6.47-1.841l0.62-0.357c0.3-0.176 0.58-0.375 0.85-0.599 0.19-0.163 0.53-0.416 1.01-0.78 1.74-1.289 2.95-3.252 3.59-5.821 0.68-2.728 0.33-5.396-1.01-7.716zm-117 63.093l-0.484-0.839 1.631 0.531c-0.39 0.063-0.774 0.166-1.147 0.308zm31.704-35.822l-0.273-0.471 1.032-0.596c0.017 0.197 0.04 0.389 0.077 0.581l-0.836 0.486zm7.525 13.035l-0.515-0.896 0.736-0.423c0.272 0.255 0.569 0.48 0.885 0.678l-1.106 0.641z"/>
	<g id="g253">
		<path id="path255" style="fill:#ec2627" d="m40.692 59.057c-0.156 0.023-0.363 0.107-0.617 0.254-0.408 0.236-0.908 0.736-1.501 1.506-0.594 0.767-0.352 2.081 0.724 3.943l12.617 21.856-4.241 2.449-31.055-10.098 8.85 15.327c0.763 1.324 1.571 2.148 2.422 2.474 0.85 0.323 1.861 0.148 3.032-0.528 0.458-0.265 0.803-0.464 1.033-0.597l1.08 1.873c-1.245 0.549-2.296 1.027-3.146 1.434-0.852 0.408-1.572 0.78-2.158 1.12-0.866 0.5-1.439 0.85-1.716 1.04-0.279 0.2-1.278 0.92-2.993 2.19l-1.103-1.91c0.14-0.05 0.341-0.15 0.595-0.3 0.484-0.28 0.919-0.67 1.304-1.181 0.384-0.51 0.556-1.079 0.52-1.703-0.037-0.624-0.379-1.497-1.027-2.618l-9.333-16.166c-0.632-1.094-1.213-1.822-1.744-2.178-0.529-0.357-1.109-0.498-1.744-0.419-0.6345 0.078-1.2068 0.264-1.7166 0.558-0.2285 0.132-0.4082 0.236-0.5352 0.309l-1.1035-1.911c2.1104-0.878 4.2463-1.943 6.4123-3.193 2.115-1.22 4.043-2.502 5.781-3.846l23.949 8.032-6.178-10.7c-0.764-1.324-1.556-2.152-2.373-2.478-0.818-0.326-1.798-0.158-2.945 0.504-0.255 0.147-0.447 0.258-0.573 0.33-0.128 0.074-0.319 0.184-0.573 0.332l-1.104-1.912 2.846-1.337c0.307-0.177 0.779-0.415 1.42-0.718 0.641-0.302 1.114-0.541 1.42-0.718 0.764-0.442 1.561-0.97 2.395-1.586 0.834-0.617 1.477-1.091 1.932-1.421l1.147 1.987z"/>
		<path id="path257" style="fill:#ec2627" d="m80.123 60.801l3.513 7.5c-0.355 0.207-2.015 1.114-4.976 2.722s-5.852 3.192-8.673 4.752c-2.819 1.559-5.069 2.824-6.75 3.795-1.299 0.751-2.641 1.576-4.025 2.476-1.382 0.9-2.643 1.747-3.78 2.54l-1.104-1.912c0.168-0.061 0.315-0.128 0.442-0.204 0.128-0.073 0.256-0.146 0.382-0.219 1.835-1.06 2.187-2.571 1.054-4.533l-10.281-17.808c-1.134-1.962-2.541-2.458-4.223-1.488-0.296 0.137-0.494 0.235-0.596 0.293-0.101 0.06-0.24 0.173-0.414 0.342l-1.147-1.987c1.103-0.501 2.32-1.085 3.651-1.751 1.33-0.667 2.595-1.346 3.793-2.037 3.007-1.736 5.536-3.223 7.591-4.46 2.054-1.237 4.292-2.596 6.715-4.08 2.423-1.483 4.19-2.582 5.308-3.294l4.244 6.467-1.95 1.126-0.649-0.951c-1.168-1.432-2.225-2.188-3.172-2.27-0.948-0.082-2.401 0.444-4.364 1.576l-7.452 4.303 6.156 10.663 7.071-4.082c1.349-0.78 2.185-1.524 2.505-2.236 0.32-0.711 0.179-1.589-0.425-2.634l-0.375-0.65 1.872-1.082 0.663 1.147 0.573 0.994 0.508 0.879 0.441 0.765 0.353 0.612 0.331 0.572 0.287 0.498 0.243 0.419c0.265 0.458 0.525 0.912 0.783 1.358 0.257 0.445 0.511 0.884 0.761 1.319l0.219 0.381-1.91 1.103-0.381-0.748c-0.646-1.122-1.347-1.726-2.098-1.82-0.753-0.092-1.832 0.267-3.239 1.079l-7.057 4.075 4.413 7.643c0.898 1.554 1.664 2.395 2.297 2.522 0.634 0.126 1.816-0.311 3.549-1.311l5.121-2.957c1.629-0.941 2.635-1.954 3.012-3.036 0.375-1.086 0.215-2.496-0.482-4.232-0.024-0.157-0.086-0.325-0.19-0.504-0.101-0.178-0.183-0.318-0.242-0.42l2.104-1.215z"/>
		<path id="path259" style="fill:#ec2627" d="m115.4 15.724l-0.29 0.214c-1.31 0.928-1.83 2.147-1.57 3.659l0.22 1.09 0.16 1.078 5.03 26.149-5.24 3.023-13.03-10.922 3.1 16.659-5.507 3.178-20.609-16.985-0.479-0.388c-1.293-0.886-2.437-1.409-3.428-1.568-0.992-0.158-1.909 0.005-2.748 0.49l-1.081-1.873c2.618-1.172 5.304-2.552 8.054-4.141 2.471-1.427 4.768-2.922 6.889-4.487l1.103 1.912c-0.193 0.078-0.328 0.138-0.404 0.182-0.051 0.03-0.268 0.247-0.645 0.651s-0.324 1.026 0.161 1.866c0.191 0.33 0.447 0.657 0.769 0.979l1.885 1.504 11.928 10.094-2.03-10.436-4.48-3.61-1.274-1.057c-0.709-0.58-1.31-0.958-1.802-1.135s-0.965-0.246-1.418-0.206c-0.454 0.039-0.887 0.144-1.299 0.312l-1.08-1.872c1.389-0.598 2.777-1.264 4.17-1.999 1.392-0.737 2.879-1.56 4.459-2.472 2.929-1.693 5.646-3.43 8.146-5.215l1.11 1.91-0.68 0.337c-2.57 1.487-3.47 2.903-2.69 4.249 0.17 0.304 0.47 0.629 0.87 0.972l1.34 1.103 11.76 9.981-3.15-15.803-0.22-0.951-0.21-0.841c-0.08-0.328-0.18-0.607-0.31-0.836-0.62-1.069-1.79-1.102-3.53-0.102l-0.49 0.287-1.08-1.873c0.74-0.295 1.57-0.654 2.48-1.078 0.91-0.423 1.77-0.872 2.59-1.342 0.59-0.338 1.19-0.736 1.81-1.196 0.61-0.458 1.18-0.901 1.68-1.327l1.06 1.836z"/>
		<path id="path261" style="fill:#ec2627" d="m129.8 8.9863l5.72 17.492-4.25 2.449-12.11-13.746c-0.07-0.062-0.13-0.137-0.18-0.227-0.05-0.088-0.09-0.146-0.1-0.171-0.5-0.866-0.47-1.879 0.1-3.041 0.57-1.161 1.7-2.227 3.38-3.1982 0.69-0.3979 1.51-0.7627 2.47-1.0977 0.96-0.334 1.9-0.3999 2.82-0.1982 0.91 0.2026 1.56 0.6338 1.94 1.2974 0.11 0.1783 0.18 0.3253 0.21 0.441zm1.49 27.116c0.66 1.147 1.7 1.846 3.12 2.096 1.42 0.252 2.92-0.079 4.5-0.991 0.18-0.103 0.36-0.213 0.57-0.331 0.25-0.213 0.69-0.548 1.3-1.008 0.62-0.458 1.08-1.304 1.39-2.534 0.31-1.231 0.18-2.344-0.39-3.338-0.58-0.993-1.56-1.675-2.94-2.047-1.39-0.371-2.94-0.065-4.64 0.92-1.64 0.942-2.7 2.09-3.19 3.443-0.49 1.356-0.4 2.618 0.28 3.79z"/>
	</g>
</g>
<metadata><rdf:RDF><cc:Work><dc:format>image/svg+xml</dc:format><dc:type rdf:resource="http://purl.org/dc/dcmitype/StillImage"/><cc:license rdf:resource="http://creativecommons.org/licenses/publicdomain/"/><dc:publisher><cc:Agent rdf:about="http://openclipart.org/"><dc:title>Openclipart</dc:title></cc:Agent></dc:publisher><dc:title>"NEW!" Exclamation</dc:title><dc:date>2007-11-09T16:23:54</dc:date><dc:description>Red outlined text that says "NEW!"</dc:description><dc:source>https://openclipart.org/detail/8109/new!-exclamation-by-carbonnyc</dc:source><dc:creator><cc:Agent><dc:title>CarbonNYC</dc:title></cc:Agent></dc:creator><dc:subject><rdf:Bag><rdf:li>drop shadow</rdf:li><rdf:li>dropshadow</rdf:li><rdf:li>exclamation</rdf:li><rdf:li>exclamation point</rdf:li><rdf:li>logo</rdf:li><rdf:li>modern</rdf:li><rdf:li>new</rdf:li><rdf:li>red</rdf:li><rdf:li>shadow</rdf:li><rdf:li>shadowed</rdf:li><rdf:li>text</rdf:li></rdf:Bag></dc:subject></cc:Work><cc:License rdf:about="http://creativecommons.org/licenses/publicdomain/"><cc:permits rdf:resource="http://creativecommons.org/ns#Reproduction"/><cc:permits rdf:resource="http://creativecommons.org/ns#Distribution"/><cc:permits rdf:resource="http://creativecommons.org/ns#DerivativeWorks"/></cc:License></rdf:RDF></metadata></svg>
